<svg width="128" height="76" viewBox="0 0 128 76" fill="none" xmlns="http://www.w3.org/2000/svg">
<g clip-path="url(#clip0_1_2)">
<path d="M119.82 9.34199C119.82 9.4306 119.82 9.54137 119.796 9.60783C119.677 10.4718 119.677 11.3358 119.748 12.222C119.796 12.4435 119.844 12.6651 120.036 12.8423C120.348 13.1746 120.828 13.1082 121.02 12.7094C121.116 12.51 121.116 12.3106 121.068 12.1112C120.828 11.2694 120.78 10.3832 120.756 9.51921C120.756 9.4749 120.756 9.40844 120.756 9.34199C121.02 9.31983 121.26 9.29767 121.475 9.29767C121.644 9.27552 121.787 9.25336 121.907 9.1869C122.267 9.00968 122.267 8.63306 121.883 8.45583C121.739 8.38936 121.548 8.3672 121.38 8.3672C120.78 8.38936 120.18 8.38936 119.581 8.38936C119.365 8.38936 119.149 8.41152 118.933 8.43367C118.813 8.45583 118.669 8.45583 118.573 8.52229C118.405 8.58874 118.309 8.69951 118.309 8.85459C118.333 9.00968 118.405 9.09829 118.573 9.16475C118.669 9.23122 118.789 9.25336 118.909 9.25336C119.197 9.27552 119.509 9.31983 119.82 9.34199ZM126.417 10.3611C126.417 10.3832 126.441 10.4054 126.441 10.4054C126.537 11.0035 126.633 11.5795 126.705 12.1555C126.729 12.3549 126.753 12.5321 126.897 12.6872C127.208 13.0638 127.688 13.0195 127.904 12.6208C128 12.4214 128.024 12.222 127.976 12.0005C127.832 11.3358 127.76 10.6712 127.616 10.0288C127.52 9.62998 127.4 9.25336 127.28 8.89891C127.208 8.67737 127.041 8.52228 126.753 8.50013C126.465 8.45583 126.249 8.58874 126.129 8.78814C125.985 8.96536 125.865 9.14259 125.769 9.34199C125.601 9.69644 125.457 10.0509 125.266 10.3832C125.241 10.4718 125.217 10.5383 125.17 10.6047C125.146 10.5604 125.122 10.5383 125.122 10.5383C124.81 9.98445 124.522 9.4306 124.21 8.89891C124.162 8.85459 124.138 8.81028 124.114 8.76598C123.97 8.5666 123.802 8.45583 123.538 8.45583C123.299 8.47797 123.107 8.6109 122.987 8.81028C122.939 8.89891 122.939 8.96536 122.915 9.05398C122.819 9.76291 122.699 10.4718 122.603 11.1808C122.555 11.5795 122.531 11.9783 122.531 12.3771C122.507 12.4657 122.531 12.5764 122.579 12.6651C122.627 12.8423 122.771 12.9531 122.963 12.9752C123.203 12.9974 123.37 12.9309 123.442 12.7537C123.514 12.6208 123.538 12.51 123.562 12.3992C123.658 12.0005 123.73 11.6238 123.802 11.2472C123.85 11.0257 123.874 10.8484 123.946 10.6047C123.994 10.6934 124.042 10.7598 124.09 10.8263C124.306 11.0921 124.522 11.358 124.786 11.5795C125.05 11.7568 125.266 11.7346 125.481 11.5352C125.529 11.4909 125.553 11.4688 125.601 11.4244C125.817 11.1143 126.081 10.8041 126.297 10.494C126.345 10.4497 126.369 10.4054 126.417 10.3611Z" fill="black"/>
<path d="M71.1473 9.77722C70.9806 10.1982 70.9487 10.5016 71.0257 10.7537C71.1108 11.0965 71.3315 11.2088 71.631 11.1216C74.4484 10.4781 80.6266 12.3045 82.914 12.8136C83.4534 12.9204 83.8923 12.2773 83.5242 11.7007C82.987 11.1422 76.8115 8.7514 74.4552 8.62104C73.5316 8.57283 71.8804 8.35409 71.1473 9.77722Z" fill="black"/>
<path d="M95.2929 2.03787C95.5931 2.19793 95.761 2.35062 95.8438 2.52123C95.9673 2.74501 95.9022 2.89985 95.6948 2.97885C93.8324 3.81834 91.3542 7.4325 90.3537 8.67899C90.1113 8.96573 89.5519 8.7991 89.4674 8.32756C89.4848 7.79438 91.6816 3.87221 92.9077 2.80395C93.3895 2.38686 94.1855 1.56849 95.2929 2.03787Z" fill="black"/>
<path d="M80.4614 0.258739C80.8221 0.00763261 81.197 -0.0803624 81.3884 0.0828248C84.1984 2.30228 85.6885 5.81699 86.6112 9.03462C86.6459 9.10958 86.6481 9.21716 86.6203 9.32938C86.6088 9.4253 86.5329 9.52662 86.4124 9.60502C86.2837 9.69157 86.1729 9.71793 86.1208 9.64335C84.8892 8.09628 77.8553 2.07691 80.4614 0.258739Z" fill="black"/>
<path d="M20.9573 38.7386C21.6307 38.2755 22.3629 37.89 23.1376 37.5908C23.9483 37.3768 24.8123 37.4122 25.5991 37.692C26.3857 37.9718 27.0526 38.4805 27.4984 39.1414C27.8972 39.8005 28.0532 40.5615 27.9431 41.3098C27.8331 42.0579 27.4628 42.7528 26.8879 43.2898C26.4422 43.725 25.9363 44.1042 25.3835 44.4175C22.9197 45.8876 20.4339 47.277 17.9483 48.7471C17.4397 49.115 16.9001 49.4451 16.3348 49.7339C15.4749 50.1299 14.4921 50.236 13.5564 50.0337C12.6208 49.8316 11.7911 49.3337 11.2108 48.6264C10.777 48.1254 10.4109 47.5777 10.1206 46.9951C7.76578 42.4239 5.32374 37.8727 3.05611 33.2208C2.00951 31.2072 1.15916 28.8912 0.330602 26.656C-0.0278686 26.0065 -0.0978698 25.2536 0.135504 24.5572C0.368878 23.8607 0.887214 23.2759 1.58025 22.927C2.2733 22.578 3.08635 22.4927 3.84653 22.6889C4.6067 22.8852 5.25402 23.3475 5.65078 23.9777C6.87035 25.4745 7.57213 26.8342 8.5 28.5C10.8548 32.5275 13.4785 36.7852 15.7461 40.692C15.8781 40.9079 16.0237 41.1162 16.1821 41.3162C17.8889 40.6534 19.4942 39.7869 20.9573 38.7386Z" fill="black"/>
<path d="M45.3049 37.3336C39.9194 43.1533 30.8924 41.6832 26.3572 34.1921C23.1301 28.8757 22.5633 20.0956 29.5843 14.5577C31.0835 13.3983 32.8762 12.6086 34.7953 12.262C37.1483 11.9505 39.5478 12.3339 41.6506 13.3574C43.7535 14.381 45.4522 15.9922 46.5042 17.961C50.3417 24.4051 49.7966 32.6213 45.3049 37.3336ZM43.1245 23.7607C42.5523 22.1771 41.4045 20.8252 39.8757 19.9345C39.0106 19.365 37.9593 19.0881 36.8991 19.1504C35.8387 19.2128 34.8341 19.6106 34.054 20.2768C30.9361 22.8344 30.2819 28.8959 32.5495 32.5005C32.8386 33.0883 33.263 33.6106 33.7935 34.0311C34.3239 34.4515 34.9475 34.7598 35.6204 34.9343C36.2933 35.1089 36.9993 35.1455 37.6892 35.0417C38.3791 34.9377 39.036 34.6959 39.6142 34.333C41.3043 33.1227 42.5443 31.4562 43.1616 29.5652C43.7791 27.674 43.7433 25.6522 43.0592 23.7809L43.1245 23.7607Z" fill="black"/>
<path d="M67.2832 26.2981C66.7319 26.4076 66.1623 26.4141 65.608 26.3172C65.054 26.2203 64.5262 26.0222 64.0563 25.7343C63.6451 25.517 63.291 25.2184 63.0197 24.8596C62.7485 24.5008 62.5668 24.0911 62.4876 23.6597C62.4082 23.2284 62.4336 22.7862 62.5614 22.3649C62.6894 21.9436 62.9171 21.5538 63.2278 21.2233C63.769 20.5594 64.5374 20.084 65.4082 19.8742C67.6816 19.2648 70.022 18.8933 72.3854 18.7666C72.9048 18.7109 73.4308 18.7514 73.9328 18.886C74.4349 19.0207 74.9027 19.2465 75.309 19.5505C75.7151 19.8543 76.0516 20.2302 76.2984 20.6558C76.5451 21.0814 76.6974 21.5482 76.7462 22.0289C77.4276 24.3901 77.5022 26.8658 76.9642 29.2584C75.002 36.9913 68.2426 39.6494 60.6548 37.1725C58.5249 36.5102 56.6574 35.2763 55.291 33.6283C53.4687 31.6436 52.1766 29.2916 51.5189 26.7613C50.986 24.5081 51.0444 22.1701 51.6893 19.9421C52.3341 17.714 53.5466 15.6607 55.2256 13.9537C56.819 12.0983 58.8871 10.6381 61.2436 9.70461C62.7326 8.9466 64.475 8.73107 66.1277 9.10048C66.5026 9.19631 66.8429 9.38303 67.1133 9.64127C67.3838 9.89954 67.5745 10.2199 67.6657 10.5692C67.757 10.9184 67.7453 11.2839 67.6321 11.6276C67.5187 11.9713 67.3081 12.2808 67.0217 12.5239C66.4772 12.9791 65.8856 13.3838 65.2555 13.7322C63.317 14.8723 61.6302 16.3414 60.2841 18.0617C59.4019 19.175 58.7942 20.4533 58.5042 21.8066C58.214 23.16 58.2486 24.5556 58.6053 25.8954C59.0998 27.7222 60.1971 29.3619 61.745 30.5874C66.5419 34.6151 72.7779 30.7284 71.6877 25.2308C70.0961 25.5933 68.7005 25.9759 67.2832 26.2981Z" fill="black"/>
<path d="M96.5882 37.6558C89.502 41.6834 81.4345 37.6558 79.6683 29.198C78.3819 23.1567 80.824 14.6988 89.3712 11.4767C91.1898 10.806 93.1622 10.5704 95.1056 10.7921C97.4405 11.1868 99.5825 12.2485 101.229 13.8273C102.876 15.4061 103.945 17.4225 104.285 19.5923C105.724 26.7814 102.454 34.4539 96.5882 37.6558ZM99.0522 24.1031C99.0501 22.4302 98.4093 20.8114 97.2425 19.5318C96.6188 18.7404 95.7171 18.1733 94.6913 17.9272C93.6653 17.6812 92.5789 17.7714 91.6169 18.1827C87.7795 19.713 85.0757 25.271 86.057 29.3591C86.1319 30.0007 86.3576 30.6194 86.7183 31.1719C87.0791 31.7245 87.5663 32.1976 88.1457 32.5582C88.725 32.9187 89.3828 33.1581 90.0727 33.2595C90.7628 33.3607 91.4684 33.3217 92.1402 33.145C94.1687 32.4905 95.925 31.2674 97.1641 29.6464C98.4033 28.0253 99.0634 26.0873 99.0522 24.1031Z" fill="black"/>
<path d="M111.451 39.3475C111.344 40.0845 110.925 40.7521 110.285 41.2034C109.645 41.6546 108.837 41.8527 108.039 41.7539C107.241 41.6551 106.518 41.2675 106.03 40.6764C105.541 40.0855 105.326 39.3393 105.433 38.6023C105.54 37.8653 105.96 37.1977 106.6 36.7464C107.24 36.295 108.048 36.0971 108.846 36.1959C109.644 36.2947 110.367 36.6821 110.855 37.2732C111.344 37.8642 111.558 38.6104 111.451 39.3475ZM109.554 12.1815C109.969 11.5966 110.577 11.1512 111.289 10.9116C112 10.6721 112.776 10.6514 113.501 10.8525C114.238 11.0228 114.889 11.4218 115.346 11.9827C115.802 12.5436 116.036 13.2323 116.008 13.9335C115.912 15.0583 115.73 16.1754 115.463 17.2764C114.744 21.0019 114.046 24.7273 113.283 28.4126C112.934 29.8827 112.476 31.2923 111.975 32.7824C111.8 33.2483 111.509 33.6692 111.124 34.0109C110.885 34.2679 110.58 34.465 110.237 34.584C109.893 34.7032 109.523 34.7403 109.16 34.6921C108.797 34.6439 108.453 34.512 108.16 34.3085C107.867 34.1048 107.634 33.8362 107.483 33.5276C107.224 32.9738 107.083 32.3788 107.069 31.7756C107.069 29.2785 107.069 26.7613 107.243 24.244C107.54 20.6516 108.123 17.0843 108.987 13.571C109.089 13.1004 109.281 12.6503 109.554 12.242V12.1815Z" fill="black"/>
<path fill-rule="evenodd" clip-rule="evenodd" d="M11.7451 55.5297C11.4877 56.0605 11.4171 56.6523 11.5429 57.2218C11.6266 57.9725 11.8104 58.7109 12.0902 59.4201C12.4395 60.2886 12.8303 61.1474 13.3123 62.2058C13.4231 62.4494 13.5389 62.7036 13.6601 62.9712C14.31 64.4052 15.1255 66.2378 16.2132 68.89C16.5211 69.6435 16.7945 70.4031 17.0698 71.168C17.181 71.477 17.2926 71.787 17.4069 72.0977C17.8164 73.2025 18.521 74.195 19.4551 74.9816C19.8517 75.4139 20.3778 75.729 20.9677 75.8865C21.5691 76.0472 22.2087 76.037 22.8037 75.8573C23.3988 75.6775 23.9214 75.3366 24.3037 74.8787C24.6786 74.4297 24.9015 73.8888 24.9448 73.3236C25.188 72.2226 25.105 71.0811 24.7042 70.0197C24.068 68.2573 23.3434 66.4924 22.5077 64.7662L22.5039 64.7586C21.1291 62.0578 19.7317 59.3757 18.2682 56.6925L18.2573 56.6737C17.8288 55.9747 17.2721 55.3498 16.6119 54.8271C16.1834 54.3606 15.5923 54.0458 14.9395 53.9374C14.2728 53.8267 13.5851 53.9382 12.9994 54.2524C12.4453 54.5447 12.006 54.9919 11.7451 55.5297Z" fill="black"/>
<path fill-rule="evenodd" clip-rule="evenodd" d="M32.7419 48.8794C30.5863 48.3638 28.3352 48.2887 26.1453 48.6593C24.4491 48.8136 22.7809 49.1749 21.6225 49.8907C21.0333 50.255 20.557 50.7227 20.292 51.3173C20.0256 51.9151 19.9916 52.5987 20.2099 53.3605C20.6086 54.7558 21.1262 56.1124 21.6421 57.4646L21.7256 57.6837L21.7276 57.6885C23.2808 61.617 24.8488 65.5322 26.4311 69.4339C26.6156 70.0489 26.8765 70.642 27.2086 71.2015L27.2148 71.2118C27.6535 71.9069 28.2161 72.5285 28.879 73.0507C29.2105 73.3378 29.6205 73.5364 30.065 73.6252C30.5139 73.7146 30.9808 73.6887 31.4147 73.5499C31.8488 73.4112 32.2331 73.165 32.5261 72.8382C32.8143 72.5168 33.003 72.1295 33.0723 71.7174C33.3583 70.5978 33.2667 69.4241 32.8095 68.3539C32.6669 67.9937 32.555 67.6257 32.437 67.2382C32.3977 67.109 32.3579 66.9776 32.3158 66.8437C35.9377 65.5362 39.7914 63.778 41.1465 59.6878C41.6772 58.2744 41.7214 56.7438 41.2731 55.3061C40.8243 53.8667 39.9036 52.591 38.6379 51.6544C36.9152 50.3434 34.9029 49.3962 32.7419 48.8794ZM26.767 53.8963C26.8383 53.8773 26.9102 53.8596 26.9822 53.8432C29.3402 53.5009 31.7526 53.9571 33.7754 55.1275C34.6668 55.7001 35.032 56.3362 35.0947 56.9484C35.1594 57.5786 34.9113 58.2616 34.4128 58.9181C33.4709 60.1583 31.7521 61.151 30.1994 61.336C29.0675 58.9285 27.9181 56.4236 26.767 53.8963Z" fill="black"/>
<path d="M47.1124 44.4726C49.6794 43.3777 52.8591 43.1886 55.3472 43.9584C55.9739 44.127 56.5175 44.4916 56.8852 44.9899C57.2506 45.4851 57.4192 46.0819 57.3628 46.6785C57.3592 47.0658 57.2562 47.4468 57.0626 47.7905C56.8655 48.1405 56.58 48.4414 56.2304 48.668C55.8808 48.8944 55.4772 49.04 55.0539 49.092C54.6304 49.1442 54.1998 49.1014 53.798 48.9671L53.7675 48.957L53.7388 48.943C53.5333 48.8436 53.3149 48.7689 53.0891 48.7201L53.0748 48.7172C51.3245 48.2878 49.6735 48.9993 49.0704 49.8734C48.7828 50.2902 48.7472 50.711 48.9867 51.0938C49.2432 51.5036 49.8725 51.9636 51.1457 52.2915C51.4959 52.3802 51.8548 52.4659 52.2189 52.553C53.2257 52.7937 54.272 53.0439 55.2837 53.3905L55.2876 53.3919C59.9552 55.0321 61.6933 58.4291 61.0982 61.6243C60.5096 64.784 57.6525 67.6595 53.3559 68.3378C51.7925 68.6579 50.1654 68.5955 48.6358 68.157C47.1024 67.717 45.7201 66.9144 44.6265 65.8283L44.5979 65.7999C44.2527 65.3907 44.0205 64.91 43.9175 64.4C43.8228 63.9397 43.8727 63.464 44.0611 63.0289C44.2483 62.5964 44.565 62.2221 44.9737 61.9493C45.4054 61.6401 45.9259 61.4546 46.4706 61.4159C47.0135 61.3774 47.5568 61.4864 48.0335 61.7293C48.5096 61.9417 48.9525 62.2127 49.35 62.535L49.3575 62.5409C50.0608 63.1349 50.9116 63.2897 51.7275 63.1463C52.5553 63.0009 53.3338 62.5485 53.8344 61.9483C54.3318 61.3519 54.5315 60.6433 54.2945 59.9555C54.056 59.2627 53.3391 58.4865 51.7638 57.8376C51.352 57.6761 50.925 57.5458 50.4808 57.419C50.3611 57.3848 50.2393 57.3508 50.116 57.3163C49.7876 57.2242 49.4497 57.1294 49.1184 57.0249C48.8902 56.953 48.6638 56.885 48.4396 56.8174C47.8268 56.6331 47.2294 56.4535 46.6545 56.2125C45.4032 55.8191 44.3222 55.0636 43.5723 54.0578C42.8193 53.048 42.4404 51.8405 42.492 50.6155C42.496 47.6302 44.5318 45.5736 47.1124 44.4726Z" fill="black"/>
<path d="M79.656 44.1546C79.1583 43.9301 78.6079 43.8235 78.0546 43.8444C77.5011 43.8655 76.962 44.0133 76.486 44.275C76.013 44.5348 75.6169 44.8986 75.3331 45.334C75.0729 45.7007 74.8928 46.1108 74.803 46.5414C74.7132 46.9716 74.7154 47.4138 74.8092 47.843C74.9019 48.3947 75.0047 48.9312 75.1062 49.4603C75.2742 50.3358 75.4377 51.1917 75.5456 52.0643L75.5496 52.0864C75.7952 53.4549 75.9237 54.839 75.9353 56.226L75.9364 56.2457C76.0203 57.7436 75.4677 59.2123 74.3971 60.3402L74.3801 60.3602C74.0317 60.7725 73.566 61.0872 73.0348 61.2691C72.5038 61.451 71.9285 61.4928 71.3732 61.3899C70.8178 61.2869 70.3045 61.0434 69.8905 60.6863C69.4766 60.3293 69.178 59.8716 69.0289 59.3671C68.7108 58.3036 68.5266 57.2097 68.4798 56.1073L69.0233 48.1165C69.0313 48.0121 69.0404 47.905 69.0498 47.7969C69.0704 47.5542 69.0916 47.3071 69.1004 47.0765C69.1132 46.7372 69.1022 46.3883 69.0167 46.0581C68.9291 45.7206 68.7625 45.3995 68.467 45.126C68.1744 44.8554 67.7795 44.6557 67.2825 44.5198C66.3837 44.2795 65.6238 44.2871 64.9905 44.5353C64.3569 44.7835 63.9228 45.2444 63.6156 45.7767C63.3108 46.3046 63.115 46.9295 62.9668 47.5554C62.8569 48.0199 62.7686 48.5075 62.6847 48.9716C62.6556 49.1316 62.6273 49.2886 62.5986 49.4411L62.5978 49.4456C62.1487 51.9909 62.0151 54.5753 62.1994 57.1485C62.2338 58.5392 62.5477 59.9118 63.1256 61.1964C63.7775 62.8539 64.9582 64.29 66.5119 65.3151C68.0689 66.3423 69.9269 66.9083 71.84 66.9382C73.753 66.9681 75.6308 66.4604 77.2246 65.4826C78.8158 64.5062 80.049 63.1068 80.761 61.4695C81.7571 59.3838 82.2248 57.1156 82.1283 54.8376C82.0697 53.1746 81.9717 51.4988 81.8743 49.8315C81.8264 49.0136 81.7786 48.1975 81.7358 47.3863C81.7143 46.573 81.4239 45.7852 80.9035 45.1286C80.5815 44.7136 80.1529 44.3788 79.656 44.1546Z" fill="black"/>
<path d="M97.2728 56.6844C97.2224 56.7437 97.1692 56.805 97.1136 56.8687C96.7087 54.7117 96.3335 52.5554 95.9577 50.3958C95.823 49.6209 95.6875 48.8428 95.5513 48.0669L95.5359 47.9804L95.4862 47.9056C95.3924 47.7648 95.383 47.6268 95.383 47.3325V47.2984L95.3774 47.2648C95.2757 46.6569 94.978 46.0912 94.5232 45.6418C94.0697 45.1936 93.4808 44.8816 92.8329 44.7462C92.1861 44.5989 91.5065 44.6314 90.8794 44.8397C90.2541 45.0475 89.709 45.4209 89.3122 45.9132C88.9823 46.2909 88.7118 46.71 88.5092 47.1577C88.0494 48.1222 87.5855 49.0891 87.1203 50.0586L87.1122 50.0754C85.9509 52.4958 84.7817 54.9325 83.6465 57.3883L83.643 57.3962C82.9462 58.9886 82.3709 60.6665 81.7977 62.3392C81.6832 62.6731 81.5687 63.0068 81.4533 63.3396C81.2463 63.8675 81.1558 64.4281 81.1869 64.9886C81.1492 65.4904 81.2793 65.991 81.5598 66.4226C81.8457 66.8631 82.2742 67.2096 82.7845 67.4136C83.3254 67.6326 83.9301 67.679 84.503 67.5457C85.0746 67.4125 85.5823 67.1078 85.946 66.6795C86.4104 66.1518 86.81 65.5763 87.1358 64.9665C88.0974 63.1498 89.0165 61.3109 89.9313 59.48C90.2853 58.7718 90.6293 58.1376 91.0206 57.4469C91.0475 57.532 91.0749 57.6151 91.1033 57.6983C91.5134 59.366 92.2057 60.9634 93.1545 62.4319C93.3341 62.743 93.5843 63.0149 93.8878 63.2289C94.195 63.4455 94.5496 63.5975 94.9268 63.6747C95.304 63.7519 95.695 63.7523 96.0724 63.6757C96.4493 63.5994 96.8049 63.4472 97.1123 63.2317L97.7207 62.8111L102.443 59.1377L102.163 60.7812C101.78 63.0403 101.4 65.2806 100.996 67.5213C100.731 68.5145 100.732 69.5519 100.997 70.5448C101.112 71.1035 101.404 71.6179 101.837 72.0224C102.274 72.4303 102.833 72.7073 103.442 72.8179C104.052 72.9282 104.683 72.8671 105.254 72.642C105.817 72.4204 106.295 72.0497 106.63 71.5773C107.409 70.6852 107.893 69.6051 108.026 68.4656C108.227 66.8565 108.453 65.2255 108.68 63.5949C108.941 61.7155 109.202 59.8365 109.422 57.9937L109.423 57.988C109.635 55.9707 109.737 53.9452 109.73 51.9184C109.777 51.2779 109.604 50.6398 109.236 50.0945C108.867 49.5473 108.32 49.1219 107.674 48.8785C107.002 48.5963 106.249 48.5208 105.527 48.6635C104.81 48.8051 104.161 49.1544 103.673 49.6603C102.802 50.4042 101.985 51.2003 101.228 52.0434L101.222 52.0491C100.395 53.0014 99.5732 53.9723 98.7567 54.937C98.2603 55.5234 97.7653 56.1084 97.2728 56.6844Z" fill="black"/>
</g>
<defs>
<clipPath id="clip0_1_2">
<rect width="128" height="76" fill="white"/>
</clipPath>
</defs>
</svg>
